<svg xmlns="http://www.w3.org/2000/svg" version="1.1" xmlns:xlink="http://www.w3.org/1999/xlink" xmlns:svgjs="http://svgjs.dev/svgjs" width="1000" height="750" viewBox="0 0 1000 750"><rect width="1000" height="750" fill="#ffffff"></rect><g transform="matrix(0.2885375494071146,0,0,0.2885375494071146,355.75899744587076,83.23643724696353)"><svg viewBox="0 0 122 247" data-background-color="#ffffff" preserveAspectRatio="xMidYMid meet" height="2024" width="1000" xmlns="http://www.w3.org/2000/svg" xmlns:xlink="http://www.w3.org/1999/xlink"><g id="tight-bounds" transform="matrix(1,0,0,1,-0.011742673482842747,-0.09999999999999432)"><svg viewBox="0 0 122.02348534696564 247.2" height="247.2" width="122.02348534696564"><g><svg viewBox="0 0 122.02348534696564 247.2" height="247.2" width="122.02348534696564"><g><svg viewBox="0 0 122.02348534696564 247.2" height="247.2" width="122.02348534696564"><g id="textblocktransform"><svg viewBox="0 0 122.02348534696564 247.2" height="247.2" width="122.02348534696564" id="textblock"><g><svg viewBox="0 0 122.02348534696564 247.2" height="247.2" width="122.02348534696564"><g transform="matrix(1,0,0,1,0,0)"><svg width="122.02348534696564" viewBox="1.9 -42.95 21.20108505553 42.95" height="247.2" data-palette-color="#8d021f"><path d="M1.9 0L1.9-42.95 13.75-42.95Q18.35-42.95 20.65-40.4 22.95-37.85 23-32.85L23-32.85 23.1-12.75Q23.15-6.4 20.9-3.2 18.65 0 13.45 0L13.45 0 1.9 0ZM10.55-7.6L12.05-7.6Q14.4-7.6 14.4-9.9L14.4-9.9 14.4-32.05Q14.4-33.5 14.18-34.23 13.95-34.95 13.35-35.2 12.75-35.45 11.5-35.45L11.5-35.45 10.55-35.45 10.55-7.6Z" opacity="1" transform="matrix(1,0,0,1,0,0)" fill="#8d021f" class="wordmark-text-0" data-fill-palette-color="primary" id="text-0"></path></svg></g></svg></g></svg></g></svg></g><g></g></svg></g><defs></defs></svg><rect width="122.02348534696564" height="247.2" fill="none" stroke="none" visibility="hidden"></rect></g></svg></g></svg>